# xmcd
#
# Track frame offsets: 
#        150
#        11367
#        29610
#        37190
#        49342
#        57387
#        85200
#        97440
#        112987
#        127515
#
# Disc length: 1842 seconds
#
# Revision: 0
# Processed by: cddbd v1.4PL0 Copyright (c) Steve Scherf et al.
# Submitted via: ExactAudioCopy v0.90b3
#
DISCID=8307300a
DTITLE=Jerry Clower - Legendary Clower
DYEAR=1900
DGENRE=Comedy
TTITLE0=Apple Pie And Cofee
TTITLE1=Uncle Versie And The Gambler
TTITLE2=The Wealth Texan
TTITLE3=Second Down And Goal To Go
TTITLE4=Ole Brumey Wasn't Runnin' A Coon
TTITLE5=Real Love
TTITLE6=You're On My List
TTITLE7=The Maddest Man I Ever Saw
TTITLE8=The She Coon Of Women's Lib
TTITLE9=The Time We Played Clemson
EXTD=
EXTT0=
EXTT1=
EXTT2=
EXTT3=
EXTT4=
EXTT5=
EXTT6=
EXTT7=
EXTT8=
EXTT9=
PLAYORDER=
